<svg width="920" height="760" viewBox="0 0 920 760" fill="none" xmlns="http://www.w3.org/2000/svg">
  <defs>
    <marker id="arrow" markerWidth="10" markerHeight="10" refX="8" refY="5" orient="auto" markerUnits="strokeWidth">
      <path d="M0,0 L10,5 L0,10 z" fill="#8C8C8C"/>
    </marker>
    <style>
      .title {
        fill: #F2F2F2;
        font-family: "Segoe UI", "PingFang SC", "Microsoft YaHei", sans-serif;
        font-size: 18px;
        font-weight: 500;
        text-anchor: middle;
      }
      .subtitle {
        fill: #F2F2F2;
        font-family: "Segoe UI", "PingFang SC", "Microsoft YaHei", sans-serif;
        font-size: 16px;
        font-weight: 400;
        text-anchor: middle;
      }
      .capsule {
        fill: #202020;
        stroke: #4A4A4A;
        stroke-width: 1.5;
      }
      .box {
        fill: #202020;
        stroke: #3C3C3C;
        stroke-width: 1.5;
      }
      .edge {
        stroke: #8C8C8C;
        stroke-width: 2;
        fill: none;
        marker-end: url(#arrow);
      }
    </style>
  </defs>

  <rect x="0" y="0" width="920" height="760" rx="18" fill="#1E1E1E"/>

  <rect class="capsule" x="395" y="20" width="130" height="46" rx="23"/>
  <text class="title" x="460" y="49">START</text>

  <rect class="box" x="282" y="112" width="356" height="92"/>
  <text class="title" x="460" y="151">query_understanding</text>
  <text class="subtitle" x="460" y="180">把自然语言问题规范化</text>

  <rect class="box" x="20" y="275" width="258" height="92"/>
  <text class="title" x="149" y="314">fetch_metrics</text>
  <text class="subtitle" x="149" y="343">查 Prometheus 指标</text>

  <rect class="box" x="331" y="275" width="258" height="92"/>
  <text class="title" x="460" y="314">fetch_logs</text>
  <text class="subtitle" x="460" y="343">查 Loki 日志</text>

  <rect class="box" x="642" y="275" width="258" height="92"/>
  <text class="title" x="771" y="314">fetch_gateway_context</text>
  <text class="subtitle" x="771" y="343">查 gateway 业务上下文</text>

  <rect class="box" x="290" y="435" width="340" height="102"/>
  <text class="title" x="460" y="476">anomaly_evaluator</text>
  <text class="subtitle" x="460" y="505">基于证据做异常判断</text>

  <rect class="box" x="326" y="590" width="268" height="92"/>
  <text class="title" x="460" y="629">diagnosis_writer</text>
  <text class="subtitle" x="460" y="658">LLM 汇总诊断结论</text>

  <rect class="capsule" x="420" y="700" width="80" height="42" rx="21"/>
  <text class="title" x="460" y="727">END</text>

  <path class="edge" d="M460 66 L460 112"/>
  <path class="edge" d="M460 204 L460 275"/>
  <path class="edge" d="M282 156 C215 156 168 190 145 275"/>
  <path class="edge" d="M638 156 C705 156 752 190 775 275"/>
  <path class="edge" d="M149 367 C149 410 216 432 290 486"/>
  <path class="edge" d="M460 367 L460 435"/>
  <path class="edge" d="M771 367 C771 410 704 432 630 486"/>
  <path class="edge" d="M460 537 L460 590"/>
  <path class="edge" d="M460 682 L460 700"/>
</svg>
